# xmcd
#
# Track frame offsets:
#	183
#	14618
#	52723
#	67433
#	79553
#	93298
#	102135
#	117080
#	131068
#	137423
#	153060
#	162788
#	169893
#	184345
#	198238
#	215065
#	229543
#	245155
#	255853
#
# Disc length: 3490 seconds
#
# Revision: 1
# Processed by: cddbd v1.4PL0 Copyright (c) Steve Scherf et al.
# Submitted via: audiograbber 1.81.02
#
DISCID=f90da013
DTITLE=Marlene Dietrich - I Couldn't Be So Annoyed
DYEAR=1900
DGENRE=
TTITLE0=Wenn Die Beste Freundin {from Est Liegt in Der Luft}
TTITLE1=Es Liegt in Der Luft
TTITLE2=Blonde Women {from Der Blaue Engel}
TTITLE3=Kinder, Heut Abend, da Such Ich Mir Was Aus {from Der Blaue Engel}
TTITLE4=Ich Bin Von Kopf Bis Fuß Auf Liebe Eingestellt {from Der Blaue Engel}
TTITLE5=Wenn ich mir was wünschen dürfte
TTITLE6=Peter
TTITLE7=Leben Ohne Liebe Kannst du Nicht {from Nie Wieder Liebe}
TTITLE8=Quand l'Amour Meurt {from Morocco}
TTITLE9=Hot Voodoo {from Blonde Venus}
TTITLE10=I Couldn't Be So Annoyed {from Blonde Venus}
TTITLE11=You Little So-And-So {from Blonde Venus}
TTITLE12=Moi, Je M'Ennuie
TTITLE13=Ja So Bin Ich
TTITLE14=Allein in Einer Großen Stadt
TTITLE15=Mein Blondes Baby
TTITLE16=Assez
TTITLE17=Awake in a Dream {from Desire}
TTITLE18=La Vie En Rose
EXTD=
EXTT0=
EXTT1=
EXTT2=
EXTT3=
EXTT4=
EXTT5=
EXTT6=
EXTT7=
EXTT8=
EXTT9=
EXTT10=
EXTT11=
EXTT12=
EXTT13=
EXTT14=
EXTT15=
EXTT16=
EXTT17=
EXTT18=
PLAYORDER=
